<?xml version="1.0" encoding="UTF-8"?>
<svg xmlns="http://www.w3.org/2000/svg" xmlns:xlink="http://www.w3.org/1999/xlink" width="6000pt" height="4500pt" viewBox="0 0 6000 4500" version="1.1">
<g id="surface1">
<path style=" stroke:none;fill-rule:nonzero;fill:rgb(100%,100%,100%);fill-opacity:1;" d="M 3166.730469 1916.714844 L 2833.265625 1916.714844 C 2809.191406 1916.714844 2789.605469 1936.300781 2789.605469 1960.375 L 2789.605469 2539.625 C 2789.605469 2563.699219 2809.191406 2583.285156 2833.265625 2583.285156 L 3166.734375 2583.285156 C 3190.808594 2583.285156 3210.394531 2563.699219 3210.394531 2539.625 L 3210.394531 1960.375 C 3210.390625 1936.300781 3190.804688 1916.714844 3166.730469 1916.714844 Z M 3188.175781 2539.625 C 3188.175781 2551.449219 3178.554688 2561.070312 3166.730469 2561.070312 L 2833.265625 2561.070312 C 2821.441406 2561.070312 2811.820312 2551.449219 2811.820312 2539.625 L 2811.820312 1960.375 C 2811.820312 1948.550781 2821.441406 1938.929688 2833.265625 1938.929688 L 3166.730469 1938.929688 C 3178.554688 1938.929688 3188.175781 1948.550781 3188.175781 1960.375 Z M 3188.175781 2539.625 "/>
<path style=" stroke:none;fill-rule:nonzero;fill:rgb(100%,100%,100%);fill-opacity:1;" d="M 3160.191406 2017.953125 L 2839.808594 2017.953125 C 2833.671875 2017.953125 2828.699219 2022.925781 2828.699219 2029.0625 L 2828.699219 2470.9375 C 2828.699219 2477.074219 2833.671875 2482.046875 2839.808594 2482.046875 L 3160.191406 2482.046875 C 3166.328125 2482.046875 3171.300781 2477.074219 3171.300781 2470.9375 L 3171.300781 2029.0625 C 3171.296875 2022.925781 3166.324219 2017.953125 3160.191406 2017.953125 Z M 2850.914062 2226.28125 L 2958.441406 2040.167969 L 2988.628906 2040.167969 L 2850.914062 2278.527344 Z M 2932.785156 2040.167969 L 2850.914062 2181.871094 L 2850.914062 2040.167969 Z M 2850.914062 2322.933594 L 3014.285156 2040.167969 L 3149.082031 2040.167969 L 3149.082031 2274.984375 L 3042.285156 2459.832031 L 2850.914062 2459.832031 Z M 3067.945312 2459.832031 L 3149.082031 2319.394531 L 3149.082031 2459.832031 Z M 3067.945312 2459.832031 "/>
<path style=" stroke:none;fill-rule:nonzero;fill:rgb(100%,100%,100%);fill-opacity:1;" d="M 2960.125 1990.535156 L 3039.871094 1990.535156 C 3046.007812 1990.535156 3050.980469 1985.558594 3050.980469 1979.425781 C 3050.980469 1973.289062 3046.007812 1968.316406 3039.871094 1968.316406 L 2960.125 1968.316406 C 2953.988281 1968.316406 2949.015625 1973.289062 2949.015625 1979.425781 C 2949.015625 1985.558594 2953.988281 1990.535156 2960.125 1990.535156 Z M 2960.125 1990.535156 "/>
<path style=" stroke:none;fill-rule:nonzero;fill:rgb(100%,100%,100%);fill-opacity:1;" d="M 3000 2490.597656 C 2984.386719 2490.597656 2971.691406 2503.296875 2971.691406 2518.90625 C 2971.691406 2534.515625 2984.390625 2547.214844 3000 2547.214844 C 3015.609375 2547.214844 3028.308594 2534.515625 3028.308594 2518.90625 C 3028.308594 2503.296875 3015.609375 2490.597656 3000 2490.597656 Z M 3000 2525 C 2996.636719 2525 2993.90625 2522.269531 2993.90625 2518.90625 C 2993.90625 2515.546875 2996.640625 2512.8125 3000 2512.8125 C 3003.359375 2512.8125 3006.089844 2515.546875 3006.089844 2518.90625 C 3006.089844 2522.269531 3003.359375 2525 3000 2525 Z M 3000 2525 "/>
</g>
</svg>
