<svg width="800" height="600" xmlns="http://www.w3.org/2000/svg">
 <!-- Created with Method Draw - http://github.com/duopixel/Method-Draw/ -->

 <g>
  <title>background</title>
  <rect fill="none" id="canvas_background" height="602" width="802" y="-1" x="-1"/>
  <g display="none" overflow="visible" y="0" x="0" height="100%" width="100%" id="canvasGrid">
   <rect fill="url(#gridpattern)" stroke-width="0" y="0" x="0" height="100%" width="100%"/>
  </g>
 </g>
 <g>
  <title>Layer 1</title>
  <g id="svg_25">
   <g transform="matrix(0.19747293567394664,0,0,0.19747293567394664,0,0) " id="svg_5">
    <path fill="#ffffff" id="svg_6" d="m2138.17106,1294.16211l-225.156,0c-16.254,0 -29.478,13.224 -29.478,29.479l0,391.109c0,16.255 13.224,29.479 29.479,29.479l225.156,0c16.255,0 29.479,-13.224 29.479,-29.479l0,-391.109c-0.001,-16.255 -13.225,-29.479 -29.48,-29.479zm14.479,420.588c0,7.983 -6.495,14.479 -14.479,14.479l-225.156,0c-7.983,0 -14.479,-6.495 -14.479,-14.479l0,-391.109c0,-7.983 6.495,-14.479 14.479,-14.479l225.156,0c7.983,0 14.479,6.495 14.479,14.479l0,391.109z"/>
    <path fill="#ffffff" id="svg_7" d="m2133.75406,1362.51811l-216.322,0c-4.142,0 -7.5,3.358 -7.5,7.5l0,298.355c0,4.142 3.358,7.5 7.5,7.5l216.323,0c4.143,0 7.5,-3.358 7.5,-7.5l0,-298.355c-0.001,-4.142 -3.358,-7.5 -7.501,-7.5zm-208.822,140.662l72.603,-125.662l20.38,0l-92.983,160.938l0,-35.276zm55.279,-125.662l-55.279,95.678l0,-95.678l55.279,0zm-55.279,190.922l110.306,-190.922l91.016,0l0,158.548l-72.108,124.807l-129.214,0l0,-92.433zm146.538,92.433l54.784,-94.822l0,94.822l-54.784,0z"/>
    <path fill="#ffffff" id="svg_8" d="m1998.67006,1344.00411l53.846,0c4.143,0 7.5,-3.358 7.5,-7.5s-3.357,-7.5 -7.5,-7.5l-53.846,0c-4.142,0 -7.5,3.358 -7.5,7.5s3.358,7.5 7.5,7.5z"/>
    <path fill="#ffffff" id="svg_9" d="m2025.59306,1681.64711c-10.54,0 -19.114,8.574 -19.114,19.114s8.575,19.114 19.114,19.114c10.54,0 19.114,-8.574 19.114,-19.114s-8.574,-19.114 -19.114,-19.114zm0,23.228c-2.269,0 -4.114,-1.845 -4.114,-4.114s1.846,-4.114 4.114,-4.114s4.114,1.845 4.114,4.114s-1.845,4.114 -4.114,4.114z"/>
   </g>
   <g transform="matrix(0.19747293567394664,0,0,0.19747293567394664,0,0) " id="svg_10"/>
   <g transform="matrix(0.19747293567394664,0,0,0.19747293567394664,0,0) " id="svg_11"/>
   <g transform="matrix(0.19747293567394664,0,0,0.19747293567394664,0,0) " id="svg_12"/>
   <g transform="matrix(0.19747293567394664,0,0,0.19747293567394664,0,0) " id="svg_13"/>
   <g transform="matrix(0.19747293567394664,0,0,0.19747293567394664,0,0) " id="svg_14"/>
   <g transform="matrix(0.19747293567394664,0,0,0.19747293567394664,0,0) " id="svg_15"/>
   <g transform="matrix(0.19747293567394664,0,0,0.19747293567394664,0,0) " id="svg_16"/>
   <g transform="matrix(0.19747293567394664,0,0,0.19747293567394664,0,0) " id="svg_17"/>
   <g transform="matrix(0.19747293567394664,0,0,0.19747293567394664,0,0) " id="svg_18"/>
   <g transform="matrix(0.19747293567394664,0,0,0.19747293567394664,0,0) " id="svg_19"/>
   <g transform="matrix(0.19747293567394664,0,0,0.19747293567394664,0,0) " id="svg_20"/>
   <g transform="matrix(0.19747293567394664,0,0,0.19747293567394664,0,0) " id="svg_21"/>
   <g transform="matrix(0.19747293567394664,0,0,0.19747293567394664,0,0) " id="svg_22"/>
   <g transform="matrix(0.19747293567394664,0,0,0.19747293567394664,0,0) " id="svg_23"/>
   <g transform="matrix(0.19747293567394664,0,0,0.19747293567394664,0,0) " id="svg_24"/>
  </g>
 </g>
</svg>